# xmcd CD database file
#
# Track frame offsets:
#	150
#	21801
#	48191
#	64798
#	83672
#	107317
#
# Disc length: 1676 seconds
#
# Revision: 0
# Processed by: cddbd v1.5.2PL0 Copyright (c) Steve Scherf et al.
# Submitted via: CDex 1.51
#
DISCID=3a068a06
DTITLE=Corman - van Endert - CORMAN - VAN ENDERT
DYEAR=2018
DGENRE=Jazz
TTITLE0=Human nature
TTITLE1=Walking on the milky way
TTITLE2=Can´t help falling in love
TTITLE3=Tutu Master
TTITLE4=Streets of Philadelphia
TTITLE5=Take it with me
EXTD=YEAR: 2018
EXTT0=
EXTT1=
EXTT2=
EXTT3=
EXTT4=
EXTT5=
PLAYORDER=
